{"title":"WWE.Hall.of.Fame.Red.Carpet.2016.04.02.HDTV.XviD-FICEK9","uid":14582092,"size":498175441,"categoryP":"video","categoryS":"tv_shows","magnet":"?xt=urn:btih:8a01bf456067ca7cadc7f7f2960a663c587d7e92&amp;dn=WWE.Hall.of.Fame.Red.Carpet.2016.04.02.HDTV.XviD-FICEK9&amp;tr=udp%3A%2F%2Ftracker.leechers-paradise.org%3A6969&amp;tr=udp%3A%2F%2Fzer0day.ch%3A1337&amp;tr=udp%3A%2F%2Fopen.demonii.com%3A1337&amp;tr=udp%3A%2F%2Ftracker.coppersurfer.tk%3A6969&amp;tr=udp%3A%2F%2Fexodus.desync.com%3A6969","seeders":0,"leechers":0,"uploader":"FICEK9","files":2,"time":1462884503,"description":"\n   General\r\n      Complete name : WWE.Hall.of.Fame.Red.Carpet.2016.04.02.HDTV.XviD-FICEK9.avi\r\n      Format : AVI\r\n      Format/Info : Audio Video Interleave\r\n      File size : 475 MiB\r\n      Duration : 55mn 43s\r\n      Overall bit rate mode : Variable\r\n      Overall bit rate : 1 192 Kbps\r\n      Writing application : MEncoder SVN-r33883(20110719-gcc4.5.2)\r\n      Writing library : MPlayer\r\n   Video #0\r\n      ID : 0\r\n      Format : MPEG-4 Visual\r\n      Format profile : Advanced   \r\n      Format settings, BVOP : 2\r\n      Format settings, QPel : No\r\n      Format settings, GMC : No warppoints\r\n      Format settings, Matrix : Default (H.263)\r\n      Codec ID : XVID\r\n      Codec ID/Hint : XviD\r\n      Duration : 55mn 43s\r\n      Bit rate : 1 055 Kbps\r\n      Width : 624 pixels\r\n      Height : 352 pixels\r\n      Display aspect ratio : 16:9\r\n      Frame rate : 29.970 fps\r\n      Color space : YUV\r\n      Chroma subsampling : 4:2:0\r\n      Bit depth : 8 bits\r\n      Scan type : Progressive\r\n      Compression mode : Lossy\r\n      Bits/(Pixel*Frame) : 0.160\r\n      Stream size : 421 MiB (89%)\r\n      Writing library : XviD 1.2.1 (UTC 2008-12-04)\r\n   Audio #1\r\n      ID : 1\r\n      Format : MPEG Audio\r\n      Format version : Version 1\r\n      Format profile : Layer 3\r\n      Mode : Joint stereo\r\n      Mode extension : MS Stereo\r\n      Codec ID : 55\r\n      Codec ID/Hint : MP3\r\n      Duration : 55mn 43s\r\n      Bit rate mode : Variable\r\n      Bit rate : 123 Kbps\r\n      Channel(s) : 2 channels\r\n      Sampling rate : 48.0 KHz\r\n      Compression mode : Lossy\r\n      Stream size : 49.0 MiB (10%)\r\n      Alignment : Aligned on interleaves\r\n      Interleave, duration : 24 ms (0.72 video frame)\r\n      Interleave, preload duration : 512 ms","torrent":{"xt":"urn:btih:8a01bf456067ca7cadc7f7f2960a663c587d7e92","amp;dn":"WWE.Hall.of.Fame.Red.Carpet.2016.04.02.HDTV.XviD-FICEK9","amp;tr":["udp%3A%2F%2Ftracker.leechers-paradise.org%3A6969","udp%3A%2F%2Fzer0day.ch%3A1337","udp%3A%2F%2Fopen.demonii.com%3A1337","udp%3A%2F%2Ftracker.coppersurfer.tk%3A6969","udp%3A%2F%2Fexodus.desync.com%3A6969"],"infoHash":"8a01bf456067ca7cadc7f7f2960a663c587d7e92","infoHashBuffer":{"type":"Buffer","data":[138,1,191,69,96,103,202,124,173,199,247,242,150,10,102,60,88,125,126,146]},"announce":[],"urlList":[]}}